<?xml version="1.0" standalone="no"?>
<!DOCTYPE svg PUBLIC "-//W3C//DTD SVG 20010904//EN"
 "http://www.w3.org/TR/2001/REC-SVG-20010904/DTD/svg10.dtd">
<svg version="1.0" xmlns="http://www.w3.org/2000/svg"
 width="640.000000pt" height="90.000000pt" viewBox="0 0 640.000000 90.000000"
 preserveAspectRatio="xMidYMid meet">

<g transform="translate(0.000000,90.000000) scale(0.100000,-0.100000)"
fill="#000000" stroke="none">
<path d="M446 838 c3 -5 10 -6 15 -3 13 9 11 12 -6 12 -8 0 -12 -4 -9 -9z"/>
<path d="M210 705 c0 -8 7 -15 16 -15 14 0 14 3 4 15 -7 8 -14 15 -16 15 -2 0
-4 -7 -4 -15z"/>
<path d="M692 705 c-11 -12 -10 -15 3 -15 8 0 15 7 15 15 0 18 -2 18 -18 0z"/>
<path d="M1920 590 c0 -49 4 -90 9 -90 5 0 18 -3 28 -6 15 -6 16 -4 6 7 -8 8
-13 43 -13 96 0 67 -3 83 -15 83 -12 0 -15 -17 -15 -90z"/>
<path d="M2800 585 c0 -86 2 -95 19 -95 14 0 17 6 13 28 -5 27 -5 27 16 8 12
-10 19 -23 16 -27 -3 -5 7 -9 22 -9 l28 0 -32 33 c-29 30 -31 35 -17 47 8 7
13 15 10 18 -2 3 -13 -6 -24 -19 l-20 -24 -1 68 c0 53 -3 67 -15 67 -12 0 -15
-17 -15 -95z"/>
<path d="M3528 585 c-2 -79 -1 -95 12 -95 11 0 15 11 15 42 0 36 3 43 20 43
17 0 20 -7 20 -43 0 -33 4 -42 18 -42 13 0 17 8 17 38 0 55 -18 76 -53 63
l-27 -11 0 50 c0 91 -19 52 -22 -45z"/>
<path d="M955 575 c0 -79 2 -85 20 -85 18 0 20 5 17 43 l-3 42 38 -43 c21 -23
46 -42 56 -42 14 0 9 11 -24 51 -49 57 -47 71 12 101 l34 18 -40 0 c-24 0 -35
-4 -27 -8 9 -6 4 -16 -19 -38 l-31 -29 4 38 c3 32 1 37 -17 37 -19 0 -20 -6
-20 -85z"/>
<path d="M1685 575 c0 -74 2 -85 18 -85 13 0 17 9 17 43 l1 42 37 -43 c21 -24
46 -42 57 -42 11 0 15 4 10 8 -6 4 -26 27 -44 51 -39 50 -36 65 20 93 l34 18
-40 0 c-24 0 -35 -4 -27 -8 9 -6 4 -16 -19 -38 l-31 -29 4 38 c3 32 1 37 -17
37 -19 0 -20 -6 -20 -85z"/>
<path d="M2380 638 c0 -20 1 -20 18 -5 37 33 44 22 40 -63 -3 -74 -2 -80 17
-80 19 0 20 6 17 80 -3 75 -2 80 17 80 11 0 25 -8 30 -17 9 -16 10 -16 11 5 0
21 -4 22 -75 22 -70 0 -75 -1 -75 -22z"/>
<path d="M3024 636 c-39 -33 -39 -89 0 -122 37 -33 51 -30 26 4 -31 41 -25
112 10 129 17 9 20 13 8 13 -9 0 -29 -11 -44 -24z"/>
<path d="M3100 653 c8 -3 21 -10 28 -16 8 -7 12 -5 12 7 0 11 -8 16 -27 15
-16 0 -22 -3 -13 -6z"/>
<path d="M140 634 c0 -8 4 -13 9 -10 5 4 11 0 14 -6 2 -7 8 -10 12 -6 9 8 -12
38 -26 38 -5 0 -9 -7 -9 -16z"/>
<path d="M747 629 c-4 -15 -2 -19 10 -15 8 3 17 6 19 6 2 0 4 7 4 15 0 23 -27
18 -33 -6z"/>
<path d="M3910 640 c0 -5 7 -10 15 -10 8 0 15 5 15 10 0 6 -7 10 -15 10 -8 0
-15 -4 -15 -10z"/>
<path d="M4320 640 c0 -5 7 -10 15 -10 8 0 15 5 15 10 0 6 -7 10 -15 10 -8 0
-15 -4 -15 -10z"/>
<path d="M2580 630 c0 -5 5 -10 10 -10 6 0 10 5 10 10 0 6 -4 10 -10 10 -5 0
-10 -4 -10 -10z"/>
<path d="M2620 630 c0 -5 7 -10 15 -10 8 0 15 5 15 10 0 6 -7 10 -15 10 -8 0
-15 -4 -15 -10z"/>
<path d="M258 613 c7 -3 16 -2 19 1 4 3 -2 6 -13 5 -11 0 -14 -3 -6 -6z"/>
<path d="M4234 600 c-5 -5 -7 -32 -6 -59 4 -48 6 -51 30 -51 24 1 25 2 9 11
-14 8 -17 21 -16 55 3 47 -2 59 -17 44z"/>
<path d="M1255 589 c-9 -14 -2 -20 14 -10 8 6 9 11 3 15 -6 3 -14 1 -17 -5z"/>
<path d="M1417 580 c3 -11 12 -20 19 -20 19 0 18 26 -2 34 -22 9 -23 8 -17
-14z"/>
<path d="M1563 593 c-8 -3 -13 -21 -13 -43 0 -23 -5 -40 -14 -43 -20 -8 -26 2
-26 45 0 27 -4 38 -15 38 -11 0 -15 -11 -15 -37 0 -51 12 -67 45 -61 26 5 27
4 23 -33 -4 -43 5 -50 22 -19 15 29 9 158 -7 153z"/>
<path d="M1865 592 c-5 -4 -10 -28 -10 -54 0 -36 4 -48 15 -48 12 0 15 10 12
43 -5 62 -6 67 -17 59z"/>
<path d="M1970 590 c-13 -8 -12 -10 3 -10 22 0 37 -38 26 -67 -10 -27 -6 -29
15 -7 9 8 16 26 16 39 0 22 -23 55 -38 55 -4 0 -14 -5 -22 -10z"/>
<path d="M2106 591 c-3 -5 -14 -7 -24 -5 -15 4 -17 -2 -17 -45 0 -39 4 -51 15
-51 11 0 15 11 15 42 0 39 2 43 23 40 15 -1 22 2 20 10 -6 16 -25 21 -32 9z"/>
<path d="M2260 596 c0 -2 7 -7 16 -10 8 -3 12 -2 9 4 -6 10 -25 14 -25 6z"/>
<path d="M2573 593 c-14 -5 -17 -43 -7 -81 6 -19 12 -22 50 -19 24 1 44 6 44
10 0 4 0 27 0 52 0 36 -3 43 -15 39 -11 -5 -14 -15 -9 -38 4 -23 1 -36 -11
-46 -22 -18 -33 -4 -37 46 -2 27 -7 39 -15 37z"/>
<path d="M2746 591 c-3 -5 -14 -7 -24 -5 -15 4 -17 -2 -17 -45 0 -39 4 -51 15
-51 11 0 15 11 15 42 0 39 2 43 23 40 15 -1 22 2 20 10 -6 16 -25 21 -32 9z"/>
<path d="M3325 594 c-16 -6 -6 -104 11 -104 10 0 14 14 14 49 0 49 -6 62 -25
55z"/>
<path d="M3372 591 c-11 -7 -11 -9 2 -14 11 -4 16 -19 16 -47 0 -28 4 -40 14
-40 10 0 16 14 18 42 2 31 8 44 21 46 14 3 17 -4 17 -42 0 -37 3 -46 18 -46
14 0 17 7 14 45 -5 54 -21 71 -52 55 -16 -9 -25 -9 -33 -1 -13 13 -18 13 -35
2z"/>
<path d="M3674 592 c-7 -4 -9 -24 -5 -52 l6 -45 45 0 c25 0 44 3 43 8 -2 4 -3
27 -3 52 0 34 -3 43 -14 39 -10 -4 -12 -16 -9 -45 6 -38 4 -40 -29 -43 -8 -1
-15 17 -18 46 -3 32 -9 45 -16 40z"/>
<path d="M3815 592 c-5 -4 -10 -28 -10 -55 0 -35 4 -47 15 -47 11 0 15 11 15
42 0 39 2 43 23 41 12 -2 22 1 22 5 0 16 -13 21 -31 12 -11 -6 -19 -6 -21 0
-2 5 -7 6 -13 2z"/>
<path d="M3984 592 c-7 -4 -9 -23 -5 -52 6 -43 8 -45 40 -43 32 1 33 1 29 -37
-3 -30 -1 -36 9 -28 18 15 18 169 0 162 -8 -3 -11 -18 -9 -43 3 -27 0 -40 -11
-44 -21 -8 -35 12 -39 55 -2 25 -7 35 -14 30z"/>
<path d="M4159 587 c6 -8 8 -17 4 -20 -3 -4 1 -7 10 -7 25 0 30 18 8 29 -27
15 -36 14 -22 -2z"/>
<path d="M663 545 c0 -27 2 -38 4 -22 2 15 2 37 0 50 -2 12 -4 0 -4 -28z"/>
<path d="M1120 553 c0 -21 4 -44 8 -50 9 -14 92 -14 92 0 0 4 0 25 0 47 0 29
-4 40 -15 40 -11 0 -15 -11 -15 -39 0 -24 -5 -41 -14 -44 -20 -8 -26 2 -26 45
0 27 -4 38 -15 38 -11 0 -15 -11 -15 -37z"/>
<path d="M1292 563 c-35 -50 -44 -73 -30 -73 10 0 50 55 66 93 9 19 -19 4 -36
-20z"/>
<path d="M1372 578 c-7 -7 -12 -24 -12 -38 0 -35 18 -50 55 -49 24 1 25 3 7 6
-26 5 -43 40 -35 72 6 24 2 26 -15 9z"/>
<path d="M2168 540 c-2 -39 0 -50 12 -50 12 0 14 11 12 50 -2 27 -8 50 -12 50
-4 0 -10 -23 -12 -50z"/>
<path d="M2233 575 c-4 -11 4 -24 22 -39 19 -16 26 -27 20 -37 -5 -9 -1 -8 10
3 17 16 17 18 -14 53 -26 30 -32 33 -38 20z"/>
<path d="M3182 543 l3 -48 40 -1 c57 -2 61 1 57 51 -5 59 -32 64 -32 6 0 -24
-5 -41 -14 -44 -20 -8 -26 2 -26 45 0 28 -4 38 -16 38 -12 0 -14 -10 -12 -47z"/>
<path d="M3908 540 c-2 -41 0 -50 13 -50 13 0 16 11 16 50 0 69 -24 69 -29 0z"/>
<path d="M4110 571 c-22 -42 1 -81 48 -81 l27 0 -25 13 c-20 10 -25 20 -25 50
0 41 -9 47 -25 18z"/>
<path d="M4318 540 c-2 -42 0 -50 15 -50 14 0 17 9 17 50 0 36 -4 50 -14 50
-10 0 -15 -15 -18 -50z"/>
<path d="M365 550 c-18 -8 -18 -9 5 -9 14 0 34 4 45 9 18 8 18 9 -5 9 -14 0
-34 -4 -45 -9z"/>
<path d="M90 536 c0 -17 33 -27 51 -15 10 6 6 11 -14 18 -36 14 -37 14 -37 -3z"/>
<path d="M798 543 c-20 -5 -23 -18 -8 -28 6 -3 10 -2 10 4 0 6 7 8 15 5 9 -4
15 0 15 10 0 16 -2 17 -32 9z"/>
<path d="M253 505 c0 -22 2 -30 4 -17 2 12 2 30 0 40 -3 9 -5 -1 -4 -23z"/>
<path d="M430 529 c0 -5 14 -9 32 -9 36 0 32 10 -6 14 -14 2 -26 -1 -26 -5z"/>
<path d="M3123 513 c-21 -21 -21 -23 -3 -23 10 0 22 9 25 21 9 28 4 29 -22 2z"/>
<path d="M1316 505 c-19 -15 -19 -15 2 -15 13 0 22 6 22 15 0 18 0 18 -24 0z"/>
<path d="M2230 500 c0 -5 5 -10 11 -10 5 0 7 5 4 10 -3 6 -8 10 -11 10 -2 0
-4 -4 -4 -10z"/>
<path d="M511 481 c-10 -17 -9 -21 3 -21 20 0 31 19 18 32 -7 7 -14 3 -21 -11z"/>
<path d="M638 417 c-8 -34 -18 -71 -22 -82 -4 -12 -2 -10 7 5 16 27 42 129 35
135 -2 3 -11 -23 -20 -58z"/>
<path d="M390 453 c0 -6 8 -17 18 -24 16 -13 16 -13 2 6 -8 11 -16 22 -17 24
-2 2 -3 0 -3 -6z"/>
<path d="M260 440 c0 -8 5 -22 10 -30 9 -13 10 -13 10 0 0 8 -5 22 -10 30 -9
13 -10 13 -10 0z"/>
<path d="M502 434 c-7 -8 -8 -14 -3 -14 10 0 25 19 20 25 -2 1 -10 -3 -17 -11z"/>
<path d="M1485 440 c-9 -15 -1 -23 21 -18 15 3 16 4 1 16 -11 9 -17 10 -22 2z"/>
<path d="M3980 436 c0 -9 7 -16 16 -16 17 0 14 22 -4 28 -7 2 -12 -3 -12 -12z"/>
<path d="M80 420 c0 -18 3 -20 13 -11 8 6 16 8 19 5 3 -3 9 -1 13 5 3 6 2 11
-4 11 -5 0 -16 3 -25 6 -12 4 -16 0 -16 -16z"/>
<path d="M794 428 c-3 -5 -4 -8 -2 -9 35 -7 55 -5 55 7 0 14 -45 16 -53 2z"/>
<path d="M281 380 c0 -14 28 -72 29 -59 0 4 -7 22 -15 40 -8 19 -14 27 -14 19z"/>
<path d="M581 374 c0 -11 3 -14 6 -6 3 7 2 16 -1 19 -3 4 -6 -2 -5 -13z"/>
<path d="M2237 340 c5 -37 4 -40 -18 -41 l-24 0 23 -10 c20 -8 23 -15 20 -51
-2 -29 1 -43 10 -43 6 0 12 3 12 8 0 4 0 45 0 92 0 66 -3 85 -14 85 -11 0 -13
-10 -9 -40z"/>
<path d="M4180 340 c0 -32 -4 -40 -18 -40 -31 0 -62 -29 -62 -59 0 -34 17 -51
50 -50 l25 0 -23 10 c-19 7 -23 15 -20 46 2 30 7 38 23 38 17 0 20 -8 23 -47
2 -34 7 -48 18 -48 11 0 14 19 14 95 0 78 -3 95 -15 95 -11 0 -15 -11 -15 -40z"/>
<path d="M4488 285 c-3 -85 -1 -95 15 -95 15 0 17 11 17 95 0 76 -3 95 -14 95
-12 0 -15 -21 -18 -95z"/>
<path d="M937 353 c-4 -3 -7 -13 -7 -21 0 -13 3 -13 18 1 37 33 44 22 40 -63
-3 -74 -2 -80 17 -80 19 0 20 6 17 80 -3 75 -2 80 17 80 11 0 25 -8 30 -17 9
-16 10 -16 11 5 0 21 -4 22 -68 22 -38 0 -72 -3 -75 -7z"/>
<path d="M1865 275 c0 -74 2 -85 18 -85 13 0 17 9 17 43 l0 42 36 -42 c22 -27
44 -43 57 -43 12 0 17 4 12 8 -27 18 -76 94 -71 107 3 8 20 24 38 35 l33 20
-32 0 c-22 0 -31 -4 -27 -13 2 -7 -7 -24 -22 -37 l-26 -25 4 38 c3 32 1 37
-17 37 -19 0 -20 -6 -20 -85z"/>
<path d="M2915 276 l0 -86 30 1 c17 0 24 3 18 6 -9 3 -13 29 -13 79 0 71 1 74
23 74 27 0 51 -24 60 -58 8 -33 -12 -82 -37 -92 -18 -7 -18 -9 -3 -9 27 -1 77
53 77 83 0 14 -10 37 -23 52 -19 22 -34 28 -78 32 l-54 4 0 -86z"/>
<path d="M3758 328 c10 -18 31 -57 47 -86 l28 -52 19 41 c21 48 23 65 4 30
-14 -25 -14 -24 -45 37 -22 44 -37 62 -51 62 -19 0 -19 -1 -2 -32z"/>
<path d="M3891 338 c-4 -12 -4 -40 1 -63 5 -22 7 -50 5 -62 -3 -19 0 -23 19
-23 21 0 22 3 13 32 -13 48 -11 125 4 131 6 3 2 6 -11 6 -15 1 -25 -7 -31 -21z"/>
<path d="M3230 340 c0 -5 7 -10 15 -10 8 0 15 5 15 10 0 6 -7 10 -15 10 -8 0
-15 -4 -15 -10z"/>
<path d="M3610 340 c0 -5 7 -10 15 -10 8 0 15 5 15 10 0 6 -7 10 -15 10 -8 0
-15 -4 -15 -10z"/>
<path d="M4717 333 c6 -14 43 -18 43 -4 0 5 -11 11 -24 13 -17 4 -23 1 -19 -9z"/>
<path d="M780 327 c0 -18 37 -39 46 -26 3 6 4 11 3 12 -2 1 -14 8 -26 15 -19
10 -23 10 -23 -1z"/>
<path d="M3990 330 c0 -5 5 -10 10 -10 6 0 10 5 10 10 0 6 -4 10 -10 10 -5 0
-10 -4 -10 -10z"/>
<path d="M4030 330 c0 -5 7 -10 15 -10 8 0 15 5 15 10 0 6 -7 10 -15 10 -8 0
-15 -4 -15 -10z"/>
<path d="M4260 330 c0 -5 7 -10 15 -10 8 0 15 5 15 10 0 6 -7 10 -15 10 -8 0
-15 -4 -15 -10z"/>
<path d="M4310 330 c0 -5 5 -10 10 -10 6 0 10 5 10 10 0 6 -4 10 -10 10 -5 0
-10 -4 -10 -10z"/>
<path d="M4570 330 c0 -5 7 -10 15 -10 8 0 15 5 15 10 0 6 -7 10 -15 10 -8 0
-15 -4 -15 -10z"/>
<path d="M4620 330 c0 -5 4 -10 9 -10 6 0 13 5 16 10 3 6 -1 10 -9 10 -9 0
-16 -4 -16 -10z"/>
<path d="M4840 330 c0 -5 5 -10 10 -10 6 0 10 5 10 10 0 6 -4 10 -10 10 -5 0
-10 -4 -10 -10z"/>
<path d="M4880 330 c0 -5 7 -10 15 -10 8 0 15 5 15 10 0 6 -7 10 -15 10 -8 0
-15 -4 -15 -10z"/>
<path d="M108 323 c-20 -5 -23 -18 -8 -28 6 -3 10 -1 10 4 0 6 7 11 15 11 8 0
15 5 15 10 0 10 -3 11 -32 3z"/>
<path d="M2534 300 c-5 -5 -7 -32 -6 -59 4 -48 6 -51 30 -51 24 1 25 2 9 11
-14 8 -17 21 -16 55 3 47 -2 59 -17 44z"/>
<path d="M1150 285 c6 -8 10 -29 8 -47 -2 -25 -8 -33 -23 -33 -17 0 -20 6 -19
43 l1 43 -21 -20 c-16 -17 -18 -26 -10 -48 8 -25 15 -28 52 -28 23 0 42 3 42
8 0 4 0 24 0 46 0 31 -4 40 -21 44 -16 4 -18 3 -9 -8z"/>
<path d="M1235 293 c-13 -4 -7 -173 6 -173 5 0 9 16 9 35 0 21 5 35 13 35 9 0
9 2 0 8 -6 4 -13 28 -15 53 -2 25 -7 44 -13 42z"/>
<path d="M1270 290 c-13 -8 -13 -10 1 -10 30 0 44 -28 32 -61 -6 -16 -8 -29
-4 -29 33 0 43 83 12 100 -24 12 -22 12 -41 0z"/>
<path d="M1373 293 c-14 -5 -17 -71 -5 -90 8 -13 99 -13 95 0 -2 4 -3 27 -3
52 0 35 -3 43 -15 39 -10 -4 -15 -20 -15 -45 0 -21 -4 -39 -10 -39 -5 0 -13 0
-17 0 -5 0 -10 19 -13 43 -3 29 -9 42 -17 40z"/>
<path d="M1732 280 c14 -22 24 -25 33 -11 3 6 -3 15 -14 20 -29 16 -33 14 -19
-9z"/>
<path d="M2083 290 c14 -9 18 -22 15 -53 -2 -32 1 -42 12 -42 11 0 14 11 11
45 -1 25 -4 46 -4 46 -1 1 -13 5 -27 8 -22 6 -22 5 -7 -4z"/>
<path d="M2353 289 c14 -8 18 -21 15 -52 -2 -32 1 -42 12 -42 11 0 14 11 11
45 -3 45 -13 60 -41 60 -11 -1 -11 -3 3 -11z"/>
<path d="M2470 285 c7 -9 15 -13 17 -11 7 7 -7 26 -19 26 -6 0 -6 -6 2 -15z"/>
<path d="M2625 292 c-5 -4 -10 -28 -10 -55 0 -40 3 -47 20 -47 18 0 20 5 16
46 -3 43 -2 46 18 39 12 -3 21 -2 21 3 0 16 -13 21 -31 12 -11 -6 -19 -6 -21
0 -2 5 -7 6 -13 2z"/>
<path d="M2771 279 c15 -15 20 -30 17 -55 -4 -32 -3 -33 14 -17 10 9 18 24 18
35 0 22 -34 58 -55 58 -11 0 -10 -5 6 -21z"/>
<path d="M3153 290 c14 -9 18 -22 15 -53 -2 -32 1 -42 12 -42 11 0 14 11 11
45 -1 25 -4 46 -4 46 -1 1 -13 5 -27 8 -22 6 -22 5 -7 -4z"/>
<path d="M3245 292 c-5 -4 -10 -28 -10 -54 0 -36 4 -48 15 -48 12 0 15 10 12
43 -5 62 -6 67 -17 59z"/>
<path d="M3315 292 c-5 -4 -10 -28 -10 -55 0 -35 4 -47 15 -47 11 0 15 11 15
42 0 39 2 43 23 41 12 -2 22 1 22 5 0 16 -13 21 -31 12 -11 -6 -19 -6 -21 0
-2 5 -7 6 -13 2z"/>
<path d="M3452 280 c14 -22 24 -25 33 -11 3 6 -3 15 -14 20 -29 16 -33 14 -19
-9z"/>
<path d="M3540 296 c0 -2 7 -7 16 -10 8 -3 12 -2 9 4 -6 10 -25 14 -25 6z"/>
<path d="M4053 292 c-6 -4 -13 -25 -15 -47 -4 -57 -32 -55 -36 3 -4 56 -32 60
-32 5 0 -54 9 -63 60 -60 l44 3 -3 49 c-3 57 -3 56 -18 47z"/>
<path d="M4254 292 c-7 -4 -9 -24 -5 -52 l6 -45 45 0 c25 0 44 3 43 8 -2 4 -3
27 -3 52 0 34 -3 43 -14 39 -10 -4 -12 -16 -9 -43 4 -28 1 -40 -10 -44 -21 -8
-35 11 -39 55 -2 25 -7 35 -14 30z"/>
<path d="M4395 292 c-5 -4 -10 -28 -10 -55 0 -44 2 -47 25 -47 17 0 21 3 12 9
-8 5 -12 22 -10 42 2 29 7 34 26 32 12 -2 22 1 22 5 0 16 -13 21 -31 12 -11
-6 -19 -6 -21 0 -2 5 -7 6 -13 2z"/>
<path d="M4565 293 c-7 -2 -9 -22 -5 -51 l5 -47 45 0 c30 0 45 4 44 13 -1 6
-2 28 -2 47 -1 21 -7 35 -15 35 -9 0 -11 -12 -9 -39 3 -27 0 -40 -11 -44 -21
-8 -35 11 -39 54 -2 20 -8 34 -13 32z"/>
<path d="M4753 293 c15 -9 8 -83 -9 -90 -22 -8 -36 16 -30 55 4 29 3 32 -10
21 -10 -8 -14 -25 -12 -48 3 -34 5 -36 36 -36 33 0 34 -1 30 -37 -4 -41 5 -49
22 -19 12 24 13 151 1 151 -5 0 -15 2 -23 3 -7 2 -10 2 -5 0z"/>
<path d="M4903 293 c-8 -3 -13 -21 -13 -43 0 -23 -5 -40 -14 -43 -20 -8 -26 2
-26 45 0 27 -4 38 -15 38 -11 0 -15 -11 -15 -37 0 -54 9 -63 60 -60 l44 3 -3
49 c-3 57 -2 54 -18 48z"/>
<path d="M1576 238 l26 -52 19 34 c21 41 25 67 4 30 l-14 -25 -13 33 c-8 19
-19 32 -30 32 -17 0 -16 -5 8 -52z"/>
<path d="M1686 274 c-34 -33 -8 -84 42 -84 l27 0 -25 13 c-20 10 -25 20 -25
50 0 20 -1 37 -2 37 -1 0 -9 -7 -17 -16z"/>
<path d="M2036 274 c-32 -31 -14 -84 28 -84 19 0 19 1 2 13 -14 10 -17 23 -14
50 5 42 5 42 -16 21z"/>
<path d="M2166 274 c-19 -18 -19 -24 -6 -58 7 -19 17 -26 37 -26 l27 0 -23 16
c-19 14 -22 23 -18 50 6 38 5 40 -17 18z"/>
<path d="M2307 272 c-31 -34 -15 -82 27 -82 19 0 19 1 2 13 -14 10 -17 23 -14
50 2 20 3 37 3 37 -1 0 -9 -8 -18 -18z"/>
<path d="M2430 272 c0 -10 11 -28 25 -40 14 -13 23 -28 19 -34 -4 -7 -3 -8 4
-4 19 11 13 39 -13 69 -28 32 -35 34 -35 9z"/>
<path d="M2721 281 c-17 -11 -18 -56 -1 -76 20 -25 30 -17 18 15 -5 17 -8 39
-5 50 3 11 4 20 4 20 -1 0 -8 -4 -16 -9z"/>
<path d="M3100 271 c-22 -42 -5 -81 34 -81 19 0 19 1 2 13 -14 10 -17 23 -14
50 4 40 -5 48 -22 18z"/>
<path d="M3406 274 c-34 -33 -8 -84 42 -84 l27 0 -25 13 c-20 10 -25 20 -25
50 0 20 -1 37 -2 37 -1 0 -9 -7 -17 -16z"/>
<path d="M3513 275 c-4 -11 4 -24 22 -39 19 -16 26 -27 20 -37 -5 -9 -1 -8 10
3 17 16 17 18 -14 53 -26 30 -32 33 -38 20z"/>
<path d="M3608 240 c-2 -42 0 -50 15 -50 14 0 17 9 17 50 0 36 -4 50 -14 50
-10 0 -15 -15 -18 -50z"/>
<path d="M3749 242 c-2 -32 0 -52 6 -52 7 0 9 16 7 38 -6 65 -8 68 -13 14z"/>
<path d="M158 226 c-10 -7 -18 -16 -18 -20 0 -11 21 -6 36 8 26 27 13 36 -18
12z"/>
<path d="M735 230 c-3 -5 -1 -10 4 -10 6 0 11 5 11 10 0 6 -2 10 -4 10 -3 0
-8 -4 -11 -10z"/>
<path d="M760 210 c0 -5 5 -10 10 -10 6 0 10 5 10 10 0 6 -4 10 -10 10 -5 0
-10 -4 -10 -10z"/>
<path d="M2430 200 c0 -5 5 -10 11 -10 5 0 7 5 4 10 -3 6 -8 10 -11 10 -2 0
-4 -4 -4 -10z"/>
<path d="M3510 200 c0 -5 5 -10 11 -10 5 0 7 5 4 10 -3 6 -8 10 -11 10 -2 0
-4 -4 -4 -10z"/>
<path d="M4695 140 c-3 -5 1 -13 10 -16 22 -9 29 1 11 15 -10 8 -16 9 -21 1z"/>
<path d="M220 125 c0 -9 5 -15 11 -13 6 2 11 8 11 13 0 5 -5 11 -11 13 -6 2
-11 -4 -11 -13z"/>
<path d="M680 131 c0 -6 5 -13 10 -16 6 -3 10 1 10 9 0 9 -4 16 -10 16 -5 0
-10 -4 -10 -9z"/>
<path d="M573 115 c0 -8 4 -12 9 -9 5 3 6 10 3 15 -9 13 -12 11 -12 -6z"/>
<path d="M440 81 c-15 -28 -12 -51 5 -51 8 0 15 5 15 11 0 5 -4 7 -10 4 -13
-8 -13 11 0 36 6 10 8 19 6 19 -3 0 -10 -9 -16 -19z"/>
<path d="M468 85 c-7 -7 3 -55 11 -55 4 0 6 13 3 30 -4 32 -5 33 -14 25z"/>
<path d="M320 64 c0 -8 5 -12 10 -9 6 3 10 10 10 16 0 5 -4 9 -10 9 -5 0 -10
-7 -10 -16z"/>
<path d="M580 71 c0 -6 5 -13 10 -16 6 -3 10 1 10 9 0 9 -4 16 -10 16 -5 0
-10 -4 -10 -9z"/>
</g>
</svg>
