<?xml version="1.0" standalone="no"?>
<!DOCTYPE svg PUBLIC "-//W3C//DTD SVG 20010904//EN"
 "http://www.w3.org/TR/2001/REC-SVG-20010904/DTD/svg10.dtd">
<svg version="1.0" xmlns="http://www.w3.org/2000/svg"
 width="640.000000pt" height="90.000000pt" viewBox="0 0 640.000000 90.000000"
 preserveAspectRatio="xMidYMid meet">

<g transform="translate(0.000000,90.000000) scale(0.100000,-0.100000)"
fill="#000000" stroke="none">
<path d="M445 830 c-3 -6 1 -7 9 -4 18 7 21 14 7 14 -6 0 -13 -4 -16 -10z"/>
<path d="M226 684 c-6 -16 2 -18 22 -5 11 7 11 9 -1 14 -9 3 -18 -1 -21 -9z"/>
<path d="M682 691 c-11 -6 -9 -9 6 -13 15 -4 19 -2 15 8 -6 16 -4 16 -21 5z"/>
<path d="M166 624 c-3 -8 -2 -13 3 -9 5 3 11 -1 14 -7 2 -7 7 -10 11 -7 8 8
-3 39 -14 39 -4 0 -11 -7 -14 -16z"/>
<path d="M736 624 c-4 -9 -3 -20 0 -23 4 -3 9 0 11 7 3 6 9 9 15 6 6 -4 9 -1
6 6 -7 21 -25 23 -32 4z"/>
<path d="M262 568 l1 -43 4 38 4 37 195 0 c107 0 194 -1 194 -3 0 -40 -26
-182 -40 -220 -11 -28 -18 -53 -16 -55 15 -14 66 204 66 280 0 5 -92 8 -205 8
l-205 0 2 -42z"/>
<path d="M383 546 c0 -8 6 -12 14 -9 7 3 13 9 13 14 0 5 -6 9 -13 9 -8 0 -14
-6 -14 -14z"/>
<path d="M559 514 c-15 -24 -24 -32 -29 -24 -6 9 -11 7 -19 -8 -8 -15 -8 -21
0 -24 8 -3 5 -10 -6 -21 -9 -10 -15 -20 -12 -23 3 -3 25 24 50 60 24 36 47 63
52 58 5 -4 5 -1 1 6 -10 17 -12 16 -37 -24z"/>
<path d="M115 531 c-7 -12 -5 -13 25 -14 11 -1 21 3 23 8 3 14 -40 19 -48 6z"/>
<path d="M460 530 c0 -5 -8 -7 -17 -3 -14 4 -15 3 -7 -6 7 -8 19 -9 34 -3 19
7 21 10 7 15 -10 4 -17 2 -17 -3z"/>
<path d="M766 531 c-4 -5 -3 -12 2 -15 12 -7 47 0 47 10 0 13 -42 17 -49 5z"/>
<path d="M271 494 c-1 -32 27 -139 35 -132 2 3 -1 19 -7 36 -6 17 -14 52 -19
79 -6 36 -8 40 -9 17z"/>
<path d="M325 481 c-7 -22 3 -51 17 -51 6 0 6 6 -2 15 -6 8 -9 23 -5 35 3 11
4 20 1 20 -2 0 -7 -8 -11 -19z"/>
<path d="M385 473 c34 -53 45 -67 45 -60 0 10 -51 87 -57 87 -3 0 3 -12 12
-27z"/>
<path d="M594 464 c0 -30 2 -33 9 -16 5 12 5 26 0 36 -7 12 -9 7 -9 -20z"/>
<path d="M100 424 c0 -11 5 -14 16 -10 9 3 20 6 25 6 6 0 7 5 4 10 -10 16 -45
12 -45 -6z"/>
<path d="M785 430 c-3 -5 -2 -10 4 -10 5 0 16 -3 25 -6 11 -4 16 -1 16 10 0
18 -35 22 -45 6z"/>
<path d="M580 395 c-7 -8 -9 -15 -4 -15 4 0 -2 -9 -14 -20 -12 -12 -22 -24
-22 -27 0 -13 48 40 53 58 6 23 3 24 -13 4z"/>
<path d="M340 382 c0 -5 9 -17 20 -27 11 -10 20 -15 20 -12 0 4 -9 16 -20 27
-11 11 -20 16 -20 12z"/>
<path d="M310 341 c0 -6 4 -13 10 -16 6 -3 7 1 4 9 -7 18 -14 21 -14 7z"/>
<path d="M138 333 c-20 -5 -23 -18 -8 -28 6 -3 10 -1 10 4 0 6 7 11 15 11 8 0
15 5 15 10 0 10 -3 11 -32 3z"/>
<path d="M775 322 c12 -11 24 -16 29 -11 12 11 8 14 -24 24 l-25 7 20 -20z"/>
<path d="M397 289 c7 -7 15 -10 18 -7 3 3 -2 9 -12 12 -14 6 -15 5 -6 -5z"/>
<path d="M514 284 c-18 -14 -18 -15 4 -4 12 6 22 13 22 15 0 8 -5 6 -26 -11z"/>
<path d="M565 264 c-9 -15 -12 -23 -6 -20 11 7 35 46 28 46 -3 0 -12 -12 -22
-26z"/>
<path d="M177 239 c-9 -6 -15 -14 -12 -20 10 -14 25 -11 25 7 0 8 5 12 10 9 6
-3 10 -1 10 4 0 14 -10 13 -33 0z"/>
<path d="M720 239 c0 -5 5 -7 10 -4 6 3 10 -1 10 -9 0 -18 15 -21 25 -7 3 6
-3 15 -14 20 -25 14 -31 14 -31 0z"/>
<path d="M256 174 c-10 -14 -15 -31 -12 -37 2 -7 8 -2 11 10 4 13 11 20 16 18
4 -3 7 4 6 15 -2 25 -1 25 -21 -6z"/>
<path d="M653 186 c0 -9 4 -16 9 -16 4 0 8 -6 8 -14 0 -8 5 -18 10 -21 16 -10
11 18 -9 44 -13 17 -18 19 -18 7z"/>
<path d="M345 141 c-3 -5 -1 -12 5 -16 5 -3 10 1 10 9 0 18 -6 21 -15 7z"/>
<path d="M573 135 c0 -8 4 -12 9 -9 5 3 6 10 3 15 -9 13 -12 11 -12 -6z"/>
<path d="M442 101 c-11 -32 -7 -41 17 -41 12 0 13 2 3 9 -9 5 -11 17 -6 34 8
36 -1 34 -14 -2z"/>
<path d="M333 95 c0 -9 4 -14 9 -13 5 2 10 8 10 13 0 5 -5 11 -10 13 -5 1 -9
-4 -9 -13z"/>
<path d="M470 98 c0 -7 4 -19 9 -27 7 -10 9 -7 8 12 -2 26 -17 39 -17 15z"/>
<path d="M577 104 c-8 -8 1 -24 12 -24 4 0 8 7 8 15 0 16 -9 20 -20 9z"/>
</g>
</svg>
